# Blender v3.0.1 OBJ File: ''
# www.blender.org
o cone_offset.002
v 0.000000 -0.999681 0.000000
v 0.000000 -0.999681 -1.000000
v 0.195090 -0.999681 -0.980785
v 0.382683 -0.999681 -0.923880
v 0.555570 -0.999681 -0.831470
v 0.707107 -0.999681 -0.707107
v 0.831470 -0.999681 -0.555570
v 0.923880 -0.999681 -0.382683
v 0.980785 -0.999681 -0.195090
v 1.000000 -0.999681 0.000000
v 0.980785 -0.999681 0.195090
v 0.923880 -0.999681 0.382683
v 0.831470 -0.999681 0.555570
v 0.707107 -0.999681 0.707107
v 0.555570 -0.999681 0.831470
v 0.382683 -0.999681 0.923880
v 0.195090 -0.999681 0.980785
v 0.000000 -0.999681 1.000000
v -0.195091 -0.999681 0.980785
v -0.382684 -0.999681 0.923879
v -0.555571 -0.999681 0.831469
v -0.707107 -0.999681 0.707106
v -0.831470 -0.999681 0.555570
v -0.923880 -0.999681 0.382683
v -0.980785 -0.999681 0.195089
v -1.000000 -0.999681 -0.000001
v -0.980785 -0.999681 -0.195091
v -0.923879 -0.999681 -0.382684
v -0.831469 -0.999681 -0.555571
v -0.707106 -0.999681 -0.707108
v -0.555569 -0.999681 -0.831470
v -0.382682 -0.999681 -0.923880
v -0.195089 -0.999681 -0.980786
v 0.000000 0.000319 0.000000
vn 0.0000 -1.0000 -0.0000
vn 0.0695 0.7054 -0.7054
vn 0.2058 0.7054 -0.6783
vn 0.3341 0.7054 -0.6251
vn 0.4497 0.7054 -0.5479
vn 0.5479 0.7054 -0.4497
vn 0.6251 0.7054 -0.3341
vn 0.6783 0.7054 -0.2058
vn 0.7054 0.7054 -0.0695
vn 0.7054 0.7054 0.0695
vn 0.6783 0.7054 0.2058
vn 0.6251 0.7054 0.3341
vn 0.5479 0.7054 0.4497
vn 0.4497 0.7054 0.5479
vn 0.3341 0.7054 0.6251
vn 0.2058 0.7054 0.6783
vn 0.0695 0.7054 0.7054
vn -0.0695 0.7054 0.7054
vn -0.2058 0.7054 0.6783
vn -0.3341 0.7054 0.6251
vn -0.4497 0.7054 0.5479
vn -0.5479 0.7054 0.4497
vn -0.6251 0.7054 0.3341
vn -0.6783 0.7054 0.2058
vn -0.7054 0.7054 0.0695
vn -0.7054 0.7054 -0.0695
vn -0.6783 0.7054 -0.2058
vn -0.6251 0.7054 -0.3341
vn -0.5479 0.7054 -0.4497
vn -0.4497 0.7054 -0.5479
vn -0.3341 0.7054 -0.6251
vn -0.2058 0.7054 -0.6783
vn -0.0695 0.7054 -0.7054
s off
f 1//1 2//1 3//1
f 1//1 3//1 4//1
f 1//1 4//1 5//1
f 1//1 5//1 6//1
f 1//1 6//1 7//1
f 1//1 7//1 8//1
f 1//1 8//1 9//1
f 1//1 9//1 10//1
f 1//1 10//1 11//1
f 1//1 11//1 12//1
f 1//1 12//1 13//1
f 1//1 13//1 14//1
f 1//1 14//1 15//1
f 1//1 15//1 16//1
f 1//1 16//1 17//1
f 1//1 17//1 18//1
f 1//1 18//1 19//1
f 1//1 19//1 20//1
f 1//1 20//1 21//1
f 1//1 21//1 22//1
f 1//1 22//1 23//1
f 1//1 23//1 24//1
f 1//1 24//1 25//1
f 1//1 25//1 26//1
f 1//1 26//1 27//1
f 1//1 27//1 28//1
f 1//1 28//1 29//1
f 1//1 29//1 30//1
f 1//1 30//1 31//1
f 1//1 31//1 32//1
f 1//1 32//1 33//1
f 1//1 33//1 2//1
f 2//2 34//2 3//2
f 3//3 34//3 4//3
f 4//4 34//4 5//4
f 5//5 34//5 6//5
f 6//6 34//6 7//6
f 7//7 34//7 8//7
f 8//8 34//8 9//8
f 9//9 34//9 10//9
f 10//10 34//10 11//10
f 11//11 34//11 12//11
f 12//12 34//12 13//12
f 13//13 34//13 14//13
f 14//14 34//14 15//14
f 15//15 34//15 16//15
f 16//16 34//16 17//16
f 17//17 34//17 18//17
f 18//18 34//18 19//18
f 19//19 34//19 20//19
f 20//20 34//20 21//20
f 21//21 34//21 22//21
f 22//22 34//22 23//22
f 23//23 34//23 24//23
f 24//24 34//24 25//24
f 25//25 34//25 26//25
f 26//26 34//26 27//26
f 27//27 34//27 28//27
f 28//28 34//28 29//28
f 29//29 34//29 30//29
f 30//30 34//30 31//30
f 31//31 34//31 32//31
f 32//32 34//32 33//32
f 33//33 34//33 2//33
